<svg width="800" height="800" viewBox="0 0 800 800" fill="none" xmlns="http://www.w3.org/2000/svg">
<path d="M740 400C740 587.777 587.777 740 400 740C212.223 740 60 587.777 60 400C60 212.223 212.223 60 400 60C587.777 60 740 212.223 740 400Z" fill="#1D1D1D"/>
<path fill-rule="evenodd" clip-rule="evenodd" d="M244.019 167.813C238.677 160.563 227.179 164.342 227.179 173.347V286.485C227.179 291.637 231.356 295.814 236.508 295.814H319.873C327.524 295.814 331.922 287.111 327.384 280.951L244.019 167.813ZM234.356 173.347C234.356 171.269 237.009 170.397 238.242 172.07L321.606 285.208C322.654 286.629 321.639 288.638 319.873 288.638H236.508C235.319 288.638 234.356 287.674 234.356 286.485V173.347Z" fill="white"/>
<path fill-rule="evenodd" clip-rule="evenodd" d="M568.768 173.979C568.768 164.875 557.062 161.162 551.815 168.602L472.468 281.108C468.11 287.288 472.53 295.814 480.092 295.814H559.439C564.591 295.814 568.768 291.637 568.768 286.485V173.979ZM557.679 172.738C558.89 171.021 561.591 171.878 561.591 173.979V286.485C561.591 287.674 560.628 288.638 559.439 288.638H480.092C478.347 288.638 477.327 286.67 478.333 285.244L557.679 172.738Z" fill="white"/>
<path fill-rule="evenodd" clip-rule="evenodd" d="M228.604 308.731L175.079 410.147C173.133 413.835 173.87 418.366 176.885 421.247L399.083 633.538C400.473 634.866 402.663 634.863 404.049 633.53L624.691 421.374C627.795 418.389 628.453 413.668 626.284 409.948L567.24 308.731H467.732C464.66 308.731 461.785 310.244 460.045 312.775L401.405 398.069L335.807 312.389C334.042 310.084 331.303 308.731 328.4 308.731H228.604ZM397.973 468.508L330.483 490.749L397.973 616.655V468.508ZM282.322 416.092L230.792 319.96L181.425 413.497C180.976 414.348 181.146 415.394 181.842 416.058L233.843 465.741C233.95 465.571 234.076 465.411 234.222 465.262L282.322 416.092ZM287.582 410.716L236.762 315.908H328.4C329.07 315.908 329.702 316.22 330.109 316.752L394.845 401.305H297.996C297.224 401.305 296.484 401.616 295.944 402.168L287.582 410.716ZM405.15 468.439V616.102L470.553 488.737L405.15 468.439ZM510.41 411.121L501.434 402.145C500.896 401.607 500.166 401.305 499.404 401.305H407.889L465.958 316.841C466.36 316.257 467.023 315.908 467.732 315.908H559.303L510.41 411.121ZM477.511 490.896L414.579 613.45L526.96 505.391C526.303 505.725 525.531 505.799 524.807 505.574L477.511 490.896ZM564.862 468.946C565.655 467.828 565.553 466.265 564.548 465.259L515.74 416.451L565.38 319.784L620.085 413.564C620.586 414.422 620.434 415.512 619.717 416.201L564.862 468.946ZM278.09 508.015L323.564 493.03L387.764 612.799L278.09 508.015Z" fill="white"/>
</svg>
